<svg id="visual" viewBox="0 0 1980 1000" width="1980" height="1000" xmlns="http://www.w3.org/2000/svg" xmlns:xlink="http://www.w3.org/1999/xlink" version="1.1"><rect x="0" y="0" width="1980" height="1000" fill="#E7D7C1"></rect><path d="M0 830L248 838L495 796L743 803L990 786L1238 810L1485 816L1733 790L1980 804L1980 1001L1733 1001L1485 1001L1238 1001L990 1001L743 1001L495 1001L248 1001L0 1001Z" fill="#f5730a"></path><path d="M0 879L248 906L495 875L743 900L990 916L1238 920L1485 893L1733 901L1980 915L1980 1001L1733 1001L1485 1001L1238 1001L990 1001L743 1001L495 1001L248 1001L0 1001Z" fill="#92140c"></path></svg>